<svg width="20" height="20" viewBox="0 0 20 20" fill="none" xmlns="http://www.w3.org/2000/svg">
<path d="M8.75033 16.5833V3.41667C8.75033 2.16667 8.21699 1.66667 6.89199 1.66667H3.52533C2.20033 1.66667 1.66699 2.16667 1.66699 3.41667V16.5833C1.66699 17.8333 2.20033 18.3333 3.52533 18.3333H6.89199C8.21699 18.3333 8.75033 17.8333 8.75033 16.5833Z" fill="#61A6FF" stroke="#61A6FF" stroke-width="1.5" stroke-linecap="round" stroke-linejoin="round"/>
<path d="M18.3333 9.08334V3.41667C18.3333 2.16667 17.8 1.66667 16.475 1.66667H13.1083C11.7833 1.66667 11.25 2.16667 11.25 3.41667V9.08334C11.25 10.3333 11.7833 10.8333 13.1083 10.8333H16.475C17.8 10.8333 18.3333 10.3333 18.3333 9.08334Z" fill="#61A6FF" stroke="#61A6FF" stroke-width="1.5" stroke-linecap="round" stroke-linejoin="round"/>
<path d="M18.3333 16.5833V15.0833C18.3333 13.8333 17.8 13.3333 16.475 13.3333H13.1083C11.7833 13.3333 11.25 13.8333 11.25 15.0833V16.5833C11.25 17.8333 11.7833 18.3333 13.1083 18.3333H16.475C17.8 18.3333 18.3333 17.8333 18.3333 16.5833Z" fill="#61A6FF" stroke="#61A6FF" stroke-width="1.5" stroke-linecap="round" stroke-linejoin="round"/>
</svg>
