<svg width="24" height="24" viewBox="0 0 24 24" fill="none" xmlns="http://www.w3.org/2000/svg">
<rect width="24" height="24" rx="12" fill="#112220"/>
<path d="M15.773 11.648C15.7207 11.7004 15.6586 11.742 15.5902 11.7704C15.5219 11.7988 15.4486 11.8134 15.3745 11.8134C15.3005 11.8134 15.2272 11.7988 15.1588 11.7704C15.0905 11.742 15.0284 11.7004 14.9761 11.648L12.5625 9.23439V16.125C12.5625 16.2742 12.5032 16.4173 12.3977 16.5228C12.2923 16.6283 12.1492 16.6875 12 16.6875C11.8508 16.6875 11.7077 16.6283 11.6023 16.5228C11.4968 16.4173 11.4375 16.2742 11.4375 16.125V9.23439L9.02297 11.648C8.9173 11.7537 8.77398 11.813 8.62453 11.813C8.47509 11.813 8.33177 11.7537 8.2261 11.648C8.12042 11.5423 8.06106 11.399 8.06106 11.2496C8.06106 11.1001 8.12042 10.9568 8.2261 10.8511L11.6011 7.47611C11.6534 7.42367 11.7155 7.38206 11.7838 7.35367C11.8522 7.32528 11.9255 7.31067 11.9995 7.31067C12.0736 7.31067 12.1469 7.32528 12.2152 7.35367C12.2836 7.38206 12.3457 7.42367 12.398 7.47611L15.773 10.8511C15.8254 10.9034 15.867 10.9655 15.8954 11.0338C15.9238 11.1022 15.9384 11.1755 15.9384 11.2496C15.9384 11.3236 15.9238 11.3969 15.8954 11.4653C15.867 11.5336 15.8254 11.5957 15.773 11.648Z" fill="#33C6AB"/>
<rect x="0.5" y="0.5" width="23" height="23" rx="11.5" stroke="#236456"/>
</svg>
