<svg width="395" height="411" viewBox="0 0 395 411" fill="none" xmlns="http://www.w3.org/2000/svg">
<g clip-path="url(#clip0_76_2)">
<path d="M70.5244 353.205C70.1894 353.271 70.0498 353.289 69.8078 353.317C62.4533 354.306 54.9962 352.484 48.9306 348.217C48.1703 347.69 47.4372 347.126 46.734 346.526C45.1169 345.143 43.659 343.585 42.3873 341.881C41.8102 341.258 41.2424 340.608 40.684 339.976C34.3744 332.893 28.5826 325.368 23.353 317.457L23.1017 317.104C23.079 317.062 23.0542 317.022 23.0273 316.983C22.8411 316.723 22.8877 316.769 22.7108 316.5C29.4868 312.496 36.6724 308.547 43.7741 305.008C50.8759 301.468 58.1638 298.105 65.5541 295.011C76.8355 290.292 88.359 286.17 100.076 282.665C105.165 281.141 110.306 279.726 115.499 278.419C119.433 277.434 123.395 276.505 127.385 275.632C130.693 275.449 134.006 275.877 137.158 276.895L157.812 288.257C161.992 290.562 165.503 293.906 168.004 297.966C168.999 299.317 169.838 300.776 170.508 302.314C170.852 303.243 171.178 304.172 171.513 305.101C171.517 305.122 171.517 305.144 171.513 305.166C173.654 311.328 175.618 317.565 177.405 323.876C181.861 339.534 185.211 355.484 187.429 371.609C187.587 372.696 187.736 373.783 187.876 374.88C189.284 385.842 190.178 396.956 190.557 408.222C179.964 408.036 169.512 406.569 159.031 405.231C156.425 404.992 153.85 404.494 151.343 403.744C145.088 401.512 139.584 397.576 135.455 392.382C133.636 390.157 132.292 387.584 131.508 384.82C131.343 384.302 131.206 383.774 131.099 383.241C131.099 382.813 131.006 382.386 130.95 381.959C130.82 380.928 130.68 379.887 130.54 378.856C128.498 363.976 125.308 349.275 121 334.885C108.895 338.249 97.0186 342.386 85.4447 347.269C84.2905 347.761 83.1364 348.254 82.0008 348.765" fill="#61A6FF"/>
<path d="M6.51536 170.104C6.29198 169.835 6.1989 169.723 6.05929 169.528C1.54757 163.643 -0.567118 156.272 0.13959 148.895C0.228568 147.959 0.365258 147.029 0.549129 146.108C0.936972 144.021 1.56151 141.986 2.41067 140.041C2.66198 139.233 2.94121 138.415 3.22044 137.616C6.2898 128.654 9.99432 119.92 14.3059 111.483C14.4827 111.12 14.3059 111.483 14.4921 111.093C14.5173 111.054 14.5391 111.014 14.5572 110.972C14.6968 110.684 14.6782 110.749 14.8178 110.452C21.659 114.363 28.6677 118.673 35.2482 123.058C41.8288 127.443 48.3721 132.126 54.7199 136.994C64.4024 144.455 73.6857 152.418 82.5313 160.851C86.3723 164.511 90.145 168.274 93.8495 172.139C96.6542 175.068 99.4124 178.05 102.124 181.085C103.922 183.863 105.184 186.95 105.847 190.19L106.154 213.731C106.218 218.495 105.044 223.193 102.748 227.369C102.061 228.899 101.205 230.348 100.197 231.689C99.5458 232.451 98.8849 233.203 98.2334 233.956H98.1776C93.8774 238.852 89.4004 243.655 84.7931 248.319C73.356 259.913 61.1173 270.692 48.1673 280.574C47.3017 281.253 46.4268 281.912 45.5425 282.581C36.694 289.289 27.4577 295.581 17.8335 301.459C12.7608 292.169 8.87021 282.386 4.85859 272.659C3.7775 270.271 2.93872 267.782 2.35482 265.227C1.20978 258.697 1.91911 251.977 4.40252 245.829C5.44407 243.147 7.02833 240.709 9.05636 238.666C9.42683 238.262 9.82159 237.88 10.2384 237.523L11.2809 236.752C12.1186 236.13 12.947 235.498 13.7754 234.894C25.7431 225.769 36.9834 215.73 47.3948 204.868C38.484 196.024 29.0108 187.764 19.0342 180.138C18.0383 179.376 17.0424 178.623 16.0371 177.88" fill="#61A6FF"/>
<path d="M133.426 23.0769C133.547 22.7611 133.603 22.6217 133.696 22.408C136.63 15.6036 142.033 10.1578 148.821 7.16276C149.668 6.79115 150.543 6.45671 151.427 6.16871C153.443 5.49382 155.529 5.04512 157.644 4.83091L160.167 4.34782C169.5 2.59878 178.947 1.51528 188.434 1.10553H188.862H189.002H189.579C189.533 8.96507 189.207 17.1683 188.648 25.0465C188.09 32.9246 187.14 40.877 185.996 48.7737C184.245 60.8563 181.859 72.8387 178.847 84.6712C177.538 89.818 176.105 94.9462 174.547 100.056C173.374 103.933 172.133 107.798 170.824 111.65C169.288 114.578 167.217 117.193 164.718 119.361L144.269 131.206C140.141 133.596 135.462 134.876 130.689 134.922C129.016 135.078 127.33 135.047 125.663 134.829C124.677 134.643 123.699 134.439 122.722 134.235H122.657C116.272 132.897 109.887 131.364 103.548 129.655C87.8119 125.404 72.3945 120.056 57.4098 113.647C56.386 113.229 55.3807 112.793 54.3662 112.356C44.2332 107.915 34.2274 102.961 24.3489 97.4917C29.9335 88.5174 36.5885 80.3327 43.1411 72.0458C44.6921 69.9315 46.4541 67.9799 48.4 66.2208C53.5369 62.0178 59.7499 59.3339 66.3359 58.4727C69.1861 58.0609 72.0906 58.2348 74.8711 58.9837C75.4008 59.1085 75.9229 59.2636 76.4347 59.4482L77.6168 59.9778C78.5476 60.4051 79.5249 60.8139 80.4929 61.2226C94.3346 67.1439 108.615 71.9862 123.206 75.7061C126.542 63.6127 129.098 51.3182 130.857 38.8982C131.034 37.6626 131.201 36.4177 131.35 35.1821" fill="#61A6FF"/>
<path d="M322.856 57.1442L323.573 57.042C330.952 56.1754 338.387 58.1268 344.385 62.5047C345.129 63.0528 345.855 63.6381 346.553 64.2606C348.145 65.6716 349.574 67.2544 350.816 68.98C351.384 69.6117 351.943 70.262 352.492 70.9124C358.674 78.1077 364.332 85.7359 369.422 93.7385C369.655 94.0636 369.422 93.7385 369.664 94.0915L369.739 94.2123C369.916 94.4724 369.879 94.4259 370.046 94.6954C363.205 98.5787 355.917 102.406 348.787 105.844C341.658 109.281 334.277 112.495 326.83 115.459C315.469 119.974 303.877 123.891 292.103 127.193C286.984 128.636 281.818 129.961 276.606 131.169C272.653 132.092 268.676 132.943 264.674 133.724C261.361 133.862 258.052 133.376 254.919 132.293L234.442 120.569C230.301 118.198 226.847 114.796 224.418 110.693C223.451 109.32 222.637 107.847 221.989 106.299C221.663 105.37 221.356 104.441 221.058 103.456C221.053 103.446 221.051 103.435 221.051 103.424C221.051 103.412 221.053 103.401 221.058 103.391C219.022 97.1975 217.161 90.9266 215.473 84.5783C211.298 68.8488 208.238 52.8455 206.314 36.6871C206.165 35.6002 206.044 34.5132 205.923 33.417C204.695 22.4111 204 11.2722 203.839 0C214.421 0.371609 224.846 2.01598 235.308 3.54887C237.897 3.82535 240.451 4.36385 242.931 5.15608C249.144 7.50089 254.576 11.5329 258.614 16.7967C260.411 19.052 261.726 21.651 262.477 24.4333C262.635 24.9512 262.759 25.4788 262.849 26.0127C262.896 26.4493 262.933 26.8766 262.98 27.304C263.091 28.3352 263.222 29.3757 263.343 30.4069C265.117 45.3354 268.045 60.1044 272.101 74.582C284.265 71.4281 296.213 67.4964 307.871 62.8113C309.034 62.3468 310.198 61.8823 311.342 61.3899" fill="#61A6FF"/>
<path d="M387.935 241.23C388.15 241.5 388.243 241.611 388.382 241.816C392.722 247.82 394.628 255.24 393.716 262.588C393.606 263.526 393.445 264.456 393.232 265.376C392.772 267.449 392.082 269.465 391.175 271.386C390.895 272.185 390.597 272.994 390.3 273.792C387.001 282.68 383.075 291.323 378.553 299.657L378.358 300.037C378.336 300.08 378.312 300.12 378.283 300.158C378.144 300.446 378.162 300.381 378.013 300.669C371.284 296.581 364.396 292.085 357.937 287.533C351.477 282.981 345.036 278.075 338.8 273.021C329.324 265.306 320.258 257.1 311.64 248.439C307.917 244.668 304.247 240.806 300.629 236.855C297.905 233.857 295.225 230.8 292.587 227.685C290.865 224.862 289.684 221.743 289.106 218.488L289.423 194.946C289.486 190.179 290.784 185.509 293.192 181.392C293.918 179.879 294.811 178.452 295.854 177.137C296.525 176.394 297.204 175.66 297.874 174.926H297.93C302.36 170.138 306.949 165.471 311.696 160.925C323.438 149.638 335.959 139.189 349.169 129.655C350.053 129.004 350.947 128.363 351.85 127.722C360.872 121.318 370.273 115.298 380.052 109.662C384.883 119.073 388.503 128.967 392.254 138.833C393.271 141.227 394.044 143.717 394.563 146.265C395.532 152.822 394.646 159.518 392.003 165.598C390.89 168.247 389.249 170.643 387.182 172.64C386.798 173.028 386.395 173.394 385.972 173.737C385.618 173.988 385.255 174.229 384.91 174.48L382.36 176.338C370.147 185.143 358.633 194.878 347.922 205.454C356.595 214.531 365.844 223.043 375.612 230.937C376.589 231.717 377.567 232.507 378.553 233.268" fill="#61A6FF"/>
<path d="M262.589 387.663C262.477 387.988 262.421 388.127 262.328 388.341C259.559 395.21 254.293 400.781 247.585 403.939C246.738 404.33 245.881 404.683 244.997 404.989C242.996 405.712 240.92 406.207 238.808 406.466C237.979 406.661 237.132 406.838 236.304 407.014C227.014 408.982 217.596 410.286 208.12 410.916C207.977 410.925 207.834 410.925 207.692 410.916H207.562C207.245 410.916 207.31 410.916 206.985 410.916C206.854 403.057 206.985 394.844 207.385 386.957C207.785 379.069 208.492 371.145 209.423 363.248C210.89 351.13 212.996 339.098 215.734 327.202C216.925 322.024 218.234 316.862 219.662 311.715C220.747 307.813 221.905 303.921 223.133 300.037C224.604 297.076 226.615 294.414 229.062 292.187L249.167 279.878C253.236 277.388 257.884 275.995 262.654 275.836C264.324 275.646 266.01 275.646 267.68 275.836L270.64 276.357H270.705C277.118 277.536 283.54 278.921 289.916 280.491C305.761 284.363 321.312 289.346 336.455 295.402C337.478 295.798 338.502 296.207 339.526 296.628C349.765 300.827 359.885 305.547 369.888 310.786C364.499 319.881 358.048 328.224 351.701 336.66C350.206 338.802 348.5 340.791 346.609 342.596C341.574 346.921 335.425 349.75 328.859 350.762C326.023 351.245 323.118 351.14 320.324 350.456C319.793 350.341 319.268 350.199 318.751 350.028C318.348 349.849 317.948 349.681 317.551 349.526C316.62 349.118 315.615 348.737 314.647 348.347C300.672 342.746 286.283 338.239 271.608 334.867C268.549 347.032 266.282 359.383 264.823 371.842C264.674 373.087 264.534 374.331 264.413 375.558" fill="#61A6FF"/>
</g>
<defs>
<clipPath id="clip0_76_2">
<rect width="395" height="411" fill="white"/>
</clipPath>
</defs>
</svg>
